<svg xmlns="http://www.w3.org/2000/svg" viewBox="0 0 460 120" fill="none" role="img" aria-labelledby="khyber-voice-title khyber-voice-desc">
  <title id="khyber-voice-title">Khyber Voice</title>
  <desc id="khyber-voice-desc">A Khyber gateway and microphone emblem beside the Khyber Voice English and Pashto wordmark.</desc>
  <g aria-hidden="true" transform="matrix(.4 0 0 .4 -116 -110)">
    <path d="M316 376C306 394 302 413 302 435C302 457 306 476 316 494" stroke="#D59C52" stroke-width="12" stroke-linecap="round"/>
    <path d="M660 376C670 394 674 413 674 435C674 457 670 476 660 494" stroke="#D59C52" stroke-width="12" stroke-linecap="round"/>
    <path d="M338 391C331 404 328 418 328 435C328 452 331 466 338 479" stroke="#B85C3D" stroke-width="8" stroke-linecap="round"/>
    <path d="M638 391C645 404 648 418 648 435C648 452 645 466 638 479" stroke="#B85C3D" stroke-width="8" stroke-linecap="round"/>
    <path d="M404 341H352C346.477 341 342 345.477 342 351V482C342 487.523 346.477 492 352 492H404C409.523 492 414 487.523 414 482V351C414 345.477 409.523 341 404 341Z" fill="#123F3A"/>
    <path d="M624 341H572C566.477 341 562 345.477 562 351V482C562 487.523 566.477 492 572 492H624C629.523 492 634 487.523 634 482V351C634 345.477 629.523 341 624 341Z" fill="#123F3A"/>
    <path d="M334 346V320H350V304H366V320H382V304H398V320H414V346H334Z" fill="#123F3A"/>
    <path d="M562 346V320H578V304H594V320H610V304H626V320H642V346H562Z" fill="#123F3A"/>
    <path d="M399 492V332H577V492H532V436C532 402 513 376 488 376C463 376 444 402 444 436V492H399Z" fill="#123F3A"/>
    <path d="M389 334H587L574 360H402L389 334Z" fill="#D59C52"/>
    <path opacity="0.85" d="M436 350H540" stroke="#FFF7E8" stroke-width="4" stroke-linecap="round"/>
    <path opacity="0.75" d="M366 371H390M366 393H390M366 415H390M586 371H610M586 393H610M586 415H610" stroke="#D59C52" stroke-width="4" stroke-linecap="round"/>
    <path d="M360 458C362.761 458 365 455.761 365 453C365 450.239 362.761 448 360 448C357.239 448 355 450.239 355 453C355 455.761 357.239 458 360 458Z" fill="#FFF7E8"/>
    <path d="M396 458C398.761 458 401 455.761 401 453C401 450.239 398.761 448 396 448C393.239 448 391 450.239 391 453C391 455.761 393.239 458 396 458Z" fill="#FFF7E8"/>
    <path d="M580 458C582.761 458 585 455.761 585 453C585 450.239 582.761 448 580 448C577.239 448 575 450.239 575 453C575 455.761 577.239 458 580 458Z" fill="#FFF7E8"/>
    <path d="M616 458C618.761 458 621 455.761 621 453C621 450.239 618.761 448 616 448C613.239 448 611 450.239 611 453C611 455.761 613.239 458 616 458Z" fill="#FFF7E8"/>
    <path d="M507 415C507 404.507 498.493 396 488 396C477.507 396 469 404.507 469 415V437C469 447.493 477.507 456 488 456C498.493 456 507 447.493 507 437V415Z" fill="#B85C3D"/>
    <path d="M457 435V439C457 456 471 470 488 470C505 470 519 456 519 439V435" stroke="#D59C52" stroke-width="8" stroke-linecap="round"/>
    <path d="M488 470V492M472 492H504" stroke="#D59C52" stroke-width="8" stroke-linecap="round"/>
    <path d="M346 510H630" stroke="#123F3A" stroke-width="10" stroke-linecap="round"/>
    <path d="M379 528L395 544L411 528L427 544L443 528L459 544L475 528L491 544L507 528L523 544L539 528L555 544L571 528L587 544" stroke="#B85C3D" stroke-width="5" stroke-linecap="round" stroke-linejoin="round"/>
  </g>
  <g aria-hidden="true" transform="matrix(.7 0 0 .7 -36 -387)">
    <path d="M287.045 657V610.455H296.886V630.977H297.5L314.25 610.455H326.045L308.773 631.295L326.25 657H314.477L301.727 637.864L296.886 643.773V657H287.045ZM339.39 636.818V657H329.709V610.455H339.118V628.25H339.527C340.315 626.189 341.587 624.576 343.345 623.409C345.103 622.227 347.307 621.636 349.959 621.636C352.383 621.636 354.497 622.167 356.3 623.227C358.118 624.273 359.527 625.78 360.527 627.75C361.542 629.705 362.042 632.045 362.027 634.773V657H352.345V636.5C352.36 634.348 351.815 632.674 350.709 631.477C349.618 630.28 348.087 629.682 346.118 629.682C344.8 629.682 343.633 629.962 342.618 630.523C341.618 631.083 340.83 631.902 340.254 632.977C339.693 634.038 339.406 635.318 339.39 636.818ZM373.093 670.091C371.866 670.091 370.715 669.992 369.639 669.795C368.578 669.614 367.699 669.379 367.003 669.091L369.184 661.864C370.321 662.212 371.343 662.402 372.253 662.432C373.177 662.462 373.972 662.25 374.639 661.795C375.321 661.341 375.874 660.568 376.298 659.477L376.866 658L364.343 622.091H374.525L381.753 647.727H382.116L389.412 622.091H399.662L386.093 660.773C385.442 662.652 384.556 664.288 383.434 665.682C382.328 667.091 380.927 668.174 379.23 668.932C377.533 669.705 375.487 670.091 373.093 670.091ZM403.518 657V610.455H413.2V627.955H413.495C413.919 627.015 414.533 626.061 415.336 625.091C416.154 624.106 417.215 623.288 418.518 622.636C419.836 621.97 421.473 621.636 423.427 621.636C425.973 621.636 428.321 622.303 430.473 623.636C432.624 624.955 434.344 626.947 435.632 629.614C436.919 632.265 437.563 635.591 437.563 639.591C437.563 643.485 436.935 646.773 435.677 649.455C434.435 652.121 432.738 654.144 430.586 655.523C428.45 656.886 426.056 657.568 423.404 657.568C421.526 657.568 419.927 657.258 418.609 656.636C417.306 656.015 416.238 655.235 415.404 654.295C414.571 653.341 413.935 652.379 413.495 651.409H413.063V657H403.518ZM412.995 639.545C412.995 641.621 413.283 643.432 413.859 644.977C414.435 646.523 415.268 647.727 416.359 648.591C417.45 649.439 418.776 649.864 420.336 649.864C421.912 649.864 423.245 649.432 424.336 648.568C425.427 647.689 426.253 646.477 426.813 644.932C427.389 643.371 427.677 641.576 427.677 639.545C427.677 637.53 427.397 635.758 426.836 634.227C426.276 632.697 425.45 631.5 424.359 630.636C423.268 629.773 421.927 629.341 420.336 629.341C418.76 629.341 417.427 629.758 416.336 630.591C415.26 631.424 414.435 632.606 413.859 634.136C413.283 635.667 412.995 637.47 412.995 639.545ZM458.653 657.682C455.062 657.682 451.971 656.955 449.38 655.5C446.804 654.03 444.819 651.955 443.425 649.273C442.032 646.576 441.335 643.386 441.335 639.705C441.335 636.114 442.032 632.962 443.425 630.25C444.819 627.538 446.782 625.424 449.312 623.909C451.857 622.394 454.842 621.636 458.266 621.636C460.569 621.636 462.713 622.008 464.698 622.75C466.698 623.477 468.441 624.576 469.925 626.045C471.425 627.515 472.592 629.364 473.425 631.591C474.259 633.803 474.675 636.394 474.675 639.364V642.023H445.198V636.023H465.562C465.562 634.629 465.259 633.394 464.653 632.318C464.047 631.242 463.206 630.402 462.13 629.795C461.069 629.174 459.835 628.864 458.425 628.864C456.956 628.864 455.653 629.205 454.516 629.886C453.395 630.553 452.516 631.455 451.88 632.591C451.244 633.712 450.918 634.962 450.903 636.341V642.045C450.903 643.773 451.221 645.265 451.857 646.523C452.509 647.78 453.425 648.75 454.607 649.432C455.789 650.114 457.191 650.455 458.812 650.455C459.888 650.455 460.872 650.303 461.766 650C462.66 649.697 463.425 649.242 464.062 648.636C464.698 648.03 465.183 647.288 465.516 646.409L474.471 647C474.016 649.152 473.085 651.03 471.675 652.636C470.282 654.227 468.478 655.47 466.266 656.364C464.069 657.242 461.532 657.682 458.653 657.682ZM479.714 657V622.091H489.1V628.182H489.464C490.1 626.015 491.168 624.379 492.668 623.273C494.168 622.152 495.895 621.591 497.85 621.591C498.335 621.591 498.858 621.621 499.418 621.682C499.979 621.742 500.471 621.826 500.895 621.932V630.523C500.441 630.386 499.812 630.265 499.009 630.159C498.206 630.053 497.471 630 496.805 630C495.38 630 494.108 630.311 492.986 630.932C491.88 631.538 491.002 632.386 490.35 633.477C489.714 634.568 489.395 635.826 489.395 637.25V657H479.714ZM526.745 610.455L537.995 645.818H538.426L549.699 610.455H560.608L544.563 657H531.881L515.813 610.455H526.745ZM576.584 657.682C573.054 657.682 570.001 656.932 567.425 655.432C564.864 653.917 562.887 651.811 561.493 649.114C560.099 646.402 559.402 643.258 559.402 639.682C559.402 636.076 560.099 632.924 561.493 630.227C562.887 627.515 564.864 625.409 567.425 623.909C570.001 622.394 573.054 621.636 576.584 621.636C580.114 621.636 583.16 622.394 585.72 623.909C588.296 625.409 590.281 627.515 591.675 630.227C593.069 632.924 593.766 636.076 593.766 639.682C593.766 643.258 593.069 646.402 591.675 649.114C590.281 651.811 588.296 653.917 585.72 655.432C583.16 656.932 580.114 657.682 576.584 657.682ZM576.629 650.182C578.235 650.182 579.576 649.727 580.652 648.818C581.728 647.894 582.538 646.636 583.084 645.045C583.644 643.455 583.925 641.644 583.925 639.614C583.925 637.583 583.644 635.773 583.084 634.182C582.538 632.591 581.728 631.333 580.652 630.409C579.576 629.485 578.235 629.023 576.629 629.023C575.008 629.023 573.644 629.485 572.538 630.409C571.448 631.333 570.622 632.591 570.061 634.182C569.516 635.773 569.243 637.583 569.243 639.614C569.243 641.644 569.516 643.455 570.061 645.045C570.622 646.636 571.448 647.894 572.538 648.818C573.644 649.727 575.008 650.182 576.629 650.182ZM598.781 657V622.091H608.463V657H598.781ZM603.645 617.591C602.205 617.591 600.971 617.114 599.94 616.159C598.925 615.189 598.418 614.03 598.418 612.682C598.418 611.348 598.925 610.205 599.94 609.25C600.971 608.28 602.205 607.795 603.645 607.795C605.084 607.795 606.311 608.28 607.327 609.25C608.357 610.205 608.872 611.348 608.872 612.682C608.872 614.03 608.357 615.189 607.327 616.159C606.311 617.114 605.084 617.591 603.645 617.591ZM630.711 657.682C627.136 657.682 624.06 656.924 621.484 655.409C618.923 653.879 616.954 651.758 615.575 649.045C614.211 646.333 613.53 643.212 613.53 639.682C613.53 636.106 614.219 632.97 615.598 630.273C616.992 627.561 618.969 625.447 621.53 623.932C624.09 622.402 627.136 621.636 630.666 621.636C633.711 621.636 636.378 622.189 638.666 623.295C640.954 624.402 642.764 625.955 644.098 627.955C645.431 629.955 646.166 632.303 646.302 635H637.166C636.908 633.258 636.227 631.856 635.12 630.795C634.03 629.72 632.598 629.182 630.825 629.182C629.325 629.182 628.014 629.591 626.893 630.409C625.787 631.212 624.923 632.386 624.302 633.932C623.681 635.477 623.37 637.348 623.37 639.545C623.37 641.773 623.673 643.667 624.28 645.227C624.901 646.788 625.772 647.977 626.893 648.795C628.014 649.614 629.325 650.023 630.825 650.023C631.931 650.023 632.923 649.795 633.802 649.341C634.696 648.886 635.431 648.227 636.007 647.364C636.598 646.485 636.984 645.432 637.166 644.205H646.302C646.151 646.871 645.423 649.22 644.12 651.25C642.833 653.265 641.052 654.841 638.78 655.977C636.507 657.114 633.817 657.682 630.711 657.682ZM667.13 657.682C663.539 657.682 660.448 656.955 657.858 655.5C655.282 654.03 653.297 651.955 651.903 649.273C650.509 646.576 649.812 643.386 649.812 639.705C649.812 636.114 650.509 632.962 651.903 630.25C653.297 627.538 655.259 625.424 657.789 623.909C660.335 622.394 663.32 621.636 666.744 621.636C669.047 621.636 671.191 622.008 673.176 622.75C675.176 623.477 676.918 624.576 678.403 626.045C679.903 627.515 681.07 629.364 681.903 631.591C682.736 633.803 683.153 636.394 683.153 639.364V642.023H653.676V636.023H674.039C674.039 634.629 673.736 633.394 673.13 632.318C672.524 631.242 671.683 630.402 670.608 629.795C669.547 629.174 668.312 628.864 666.903 628.864C665.433 628.864 664.13 629.205 662.994 629.886C661.873 630.553 660.994 631.455 660.358 632.591C659.721 633.712 659.395 634.962 659.38 636.341V642.045C659.38 643.773 659.698 645.265 660.335 646.523C660.986 647.78 661.903 648.75 663.085 649.432C664.267 650.114 665.668 650.455 667.289 650.455C668.365 650.455 669.35 650.303 670.244 650C671.138 649.697 671.903 649.242 672.539 648.636C673.176 648.03 673.661 647.288 673.994 646.409L682.948 647C682.494 649.152 681.562 651.03 680.153 652.636C678.759 654.227 676.956 655.47 674.744 656.364C672.547 657.242 670.009 657.682 667.13 657.682Z" fill="#123F3A"/>
  </g>
  <g aria-hidden="true" transform="matrix(.7 0 0 .7 -111.4 -410)">
    <path d="M396.544 729.854L394.81 725.638C396.011 725.23 397.111 724.754 398.108 724.21C399.128 723.666 400.012 723.065 400.76 722.408C401.508 721.751 402.086 721.037 402.494 720.266C402.902 719.473 403.106 718.623 403.106 717.716C403.106 716.764 402.891 715.721 402.46 714.588C402.029 713.455 401.508 712.299 400.896 711.12L405.35 708.978C405.758 709.681 406.109 710.44 406.404 711.256C406.721 712.049 406.982 712.763 407.186 713.398C407.39 714.033 407.526 714.463 407.594 714.69C407.911 715.778 408.342 716.503 408.886 716.866C409.453 717.229 410.359 717.41 411.606 717.41C412.467 717.41 413.079 717.637 413.442 718.09C413.827 718.521 414.02 719.065 414.02 719.722C414.02 720.425 413.782 721.014 413.306 721.49C412.83 721.943 412.15 722.17 411.266 722.17C410.337 722.17 409.521 722.034 408.818 721.762C408.115 721.49 407.549 721.093 407.118 720.572C406.71 720.051 406.449 719.439 406.336 718.736L407.594 719.45C407.458 720.651 407.061 721.785 406.404 722.85C405.769 723.938 404.942 724.935 403.922 725.842C402.902 726.749 401.757 727.542 400.488 728.222C399.219 728.902 397.904 729.446 396.544 729.854ZM399.026 721.932C398.323 721.932 397.723 721.694 397.224 721.218C396.748 720.742 396.51 720.153 396.51 719.45C396.51 718.747 396.748 718.147 397.224 717.648C397.723 717.149 398.323 716.9 399.026 716.9C399.706 716.9 400.284 717.149 400.76 717.648C401.259 718.147 401.508 718.747 401.508 719.45C401.508 720.153 401.259 720.742 400.76 721.218C400.284 721.694 399.706 721.932 399.026 721.932ZM401.508 737.198C400.851 737.198 400.284 736.971 399.808 736.518C399.355 736.065 399.128 735.509 399.128 734.852C399.128 734.195 399.355 733.617 399.808 733.118C400.284 732.642 400.851 732.404 401.508 732.404C402.165 732.404 402.721 732.642 403.174 733.118C403.65 733.617 403.888 734.195 403.888 734.852C403.888 735.509 403.65 736.065 403.174 736.518C402.721 736.971 402.165 737.198 401.508 737.198ZM411.307 722.17L411.647 717.41C412.712 717.41 413.528 717.399 414.095 717.376C414.684 717.353 415.126 717.331 415.421 717.308C415.715 717.263 415.965 717.229 416.169 717.206C415.942 716.979 415.647 716.651 415.285 716.22C414.922 715.789 414.593 715.234 414.299 714.554C414.027 713.874 413.891 713.058 413.891 712.106C413.891 710.723 414.242 709.511 414.945 708.468C415.67 707.425 416.645 706.609 417.869 706.02C419.093 705.431 420.464 705.136 421.983 705.136C422.708 705.136 423.377 705.181 423.989 705.272C424.623 705.363 425.258 705.499 425.893 705.68L425.145 710.202C424.691 710.089 424.215 709.998 423.717 709.93C423.218 709.862 422.776 709.828 422.391 709.828C421.643 709.828 420.985 709.953 420.419 710.202C419.875 710.429 419.444 710.757 419.127 711.188C418.832 711.596 418.685 712.095 418.685 712.684C418.685 713.069 418.753 713.432 418.889 713.772C419.047 714.112 419.24 714.418 419.467 714.69C419.693 714.962 419.943 715.2 420.215 715.404C420.487 715.608 420.747 715.778 420.997 715.914C421.269 716.027 421.495 716.107 421.677 716.152C422.243 715.993 422.731 715.857 423.139 715.744C423.569 715.608 423.977 715.483 424.363 715.37C424.771 715.234 425.213 715.064 425.689 714.86C426.165 714.656 426.754 714.407 427.457 714.112L428.987 718.6C427.083 719.529 425.224 720.255 423.411 720.776C421.597 721.297 419.716 721.66 417.767 721.864C415.817 722.068 413.664 722.17 411.307 722.17ZM420.657 701.974C419.954 701.974 419.353 701.736 418.855 701.26C418.379 700.784 418.141 700.195 418.141 699.492C418.141 698.789 418.379 698.189 418.855 697.69C419.353 697.191 419.954 696.942 420.657 696.942C421.337 696.942 421.915 697.191 422.391 697.69C422.889 698.189 423.139 698.789 423.139 699.492C423.139 700.195 422.889 700.784 422.391 701.26C421.915 701.736 421.337 701.974 420.657 701.974ZM439.608 729.854L437.874 725.638C439.076 725.23 440.175 724.754 441.172 724.21C442.192 723.666 443.076 723.065 443.824 722.408C444.572 721.751 445.15 721.037 445.558 720.266C445.966 719.473 446.17 718.623 446.17 717.716C446.17 716.764 445.955 715.721 445.524 714.588C445.094 713.455 444.572 712.299 443.96 711.12L448.414 708.978C448.822 709.681 449.174 710.44 449.468 711.256C449.786 712.049 450.046 712.763 450.25 713.398C450.454 714.033 450.59 714.463 450.658 714.69C450.976 715.778 451.406 716.503 451.95 716.866C452.517 717.229 453.424 717.41 454.67 717.41C455.532 717.41 456.144 717.637 456.506 718.09C456.892 718.521 457.084 719.065 457.084 719.722C457.084 720.425 456.846 721.014 456.37 721.49C455.894 721.943 455.214 722.17 454.33 722.17C453.401 722.17 452.585 722.034 451.882 721.762C451.18 721.49 450.613 721.093 450.182 720.572C449.774 720.051 449.514 719.439 449.4 718.736L450.658 719.45C450.522 720.651 450.126 721.785 449.468 722.85C448.834 723.938 448.006 724.935 446.986 725.842C445.966 726.749 444.822 727.542 443.552 728.222C442.283 728.902 440.968 729.446 439.608 729.854ZM454.371 722.17L454.711 717.41C455.572 717.41 456.252 717.331 456.751 717.172C457.272 717.013 457.68 716.696 457.975 716.22C458.292 715.721 458.553 714.996 458.757 714.044C458.984 713.092 459.21 711.823 459.437 710.236L463.891 710.984C463.846 711.324 463.778 711.721 463.687 712.174C463.619 712.627 463.551 713.092 463.483 713.568C463.438 714.021 463.415 714.452 463.415 714.86C463.415 715.404 463.528 715.869 463.755 716.254C464.004 716.617 464.435 716.9 465.047 717.104C465.682 717.308 466.588 717.41 467.767 717.41C468.628 717.41 469.24 717.637 469.603 718.09C469.966 718.521 470.147 719.065 470.147 719.722C470.147 720.425 469.909 721.014 469.433 721.49C468.98 721.943 468.311 722.17 467.427 722.17C465.863 722.17 464.594 722.023 463.619 721.728C462.644 721.433 461.919 720.935 461.443 720.232C460.967 719.529 460.661 718.566 460.525 717.342H462.157C461.749 718.43 461.273 719.303 460.729 719.96C460.185 720.595 459.573 721.071 458.893 721.388C458.213 721.705 457.488 721.909 456.717 722C455.969 722.113 455.187 722.17 454.371 722.17ZM460.423 729.99C459.766 729.99 459.199 729.763 458.723 729.31C458.27 728.857 458.043 728.301 458.043 727.644C458.043 726.987 458.27 726.409 458.723 725.91C459.199 725.434 459.766 725.196 460.423 725.196C461.08 725.196 461.636 725.434 462.089 725.91C462.565 726.409 462.803 726.987 462.803 727.644C462.803 728.301 462.565 728.857 462.089 729.31C461.636 729.763 461.08 729.99 460.423 729.99ZM467.42 722.17L467.76 717.41C468.576 717.41 469.279 717.331 469.868 717.172C470.457 717.013 470.956 716.696 471.364 716.22C471.772 715.721 472.112 714.996 472.384 714.044C472.679 713.092 472.939 711.823 473.166 710.236L477.62 710.984C477.575 711.324 477.507 711.721 477.416 712.174C477.348 712.627 477.28 713.092 477.212 713.568C477.167 714.021 477.144 714.452 477.144 714.86C477.144 715.268 477.223 715.631 477.382 715.948C477.541 716.265 477.79 716.537 478.13 716.764C478.493 716.968 478.957 717.127 479.524 717.24C480.113 717.353 480.827 717.41 481.666 717.41C482.527 717.41 483.139 717.637 483.502 718.09C483.865 718.521 484.046 719.065 484.046 719.722C484.046 720.425 483.808 721.014 483.332 721.49C482.879 721.943 482.21 722.17 481.326 722.17C480.306 722.17 479.377 722.091 478.538 721.932C477.722 721.773 477.008 721.513 476.396 721.15C475.807 720.765 475.319 720.266 474.934 719.654C474.571 719.019 474.345 718.249 474.254 717.342H475.886C475.478 718.43 474.957 719.303 474.322 719.96C473.71 720.595 473.019 721.071 472.248 721.388C471.477 721.705 470.673 721.909 469.834 722C469.018 722.113 468.213 722.17 467.42 722.17ZM476.906 730.058C476.249 730.058 475.682 729.82 475.206 729.344C474.753 728.891 474.526 728.347 474.526 727.712C474.526 727.055 474.753 726.488 475.206 726.012C475.682 725.536 476.249 725.298 476.906 725.298C477.541 725.298 478.085 725.536 478.538 726.012C478.991 726.488 479.218 727.055 479.218 727.712C479.218 728.347 478.991 728.891 478.538 729.344C478.085 729.82 477.541 730.058 476.906 730.058ZM471.024 730.058C470.367 730.058 469.8 729.82 469.324 729.344C468.871 728.891 468.644 728.347 468.644 727.712C468.644 727.055 468.871 726.488 469.324 726.012C469.8 725.536 470.367 725.298 471.024 725.298C471.659 725.298 472.203 725.536 472.656 726.012C473.109 726.488 473.336 727.055 473.336 727.712C473.336 728.347 473.109 728.891 472.656 729.344C472.203 729.82 471.659 730.058 471.024 730.058ZM481.332 722.17L481.672 717.41C482.896 717.41 484.109 717.342 485.31 717.206C486.511 717.07 487.679 716.866 488.812 716.594C489.945 716.322 491.022 715.971 492.042 715.54C493.085 715.109 494.059 714.588 494.966 713.976C494.286 713.568 493.549 713.217 492.756 712.922C491.963 712.627 491.113 712.412 490.206 712.276C489.322 712.117 488.381 712.038 487.384 712.038C487.021 712.038 486.636 712.049 486.228 712.072C485.843 712.095 485.446 712.14 485.038 712.208C484.63 712.253 484.222 712.321 483.814 712.412L483.134 707.754C483.791 707.573 484.483 707.448 485.208 707.38C485.956 707.289 486.613 707.244 487.18 707.244C488.404 707.244 489.526 707.38 490.546 707.652C491.589 707.924 492.541 708.264 493.402 708.672C494.286 709.08 495.102 709.488 495.85 709.896C496.621 710.304 497.346 710.644 498.026 710.916C498.729 711.188 499.409 711.324 500.066 711.324H501.324L501.868 715.846C500.893 715.891 499.975 716.084 499.114 716.424C498.275 716.741 497.437 717.149 496.598 717.648C495.782 718.124 494.898 718.623 493.946 719.144C493.017 719.665 491.963 720.153 490.784 720.606C489.605 721.059 488.245 721.433 486.704 721.728C485.163 722.023 483.372 722.17 481.332 722.17ZM487.214 704.082C486.511 704.082 485.911 703.844 485.412 703.368C484.936 702.892 484.698 702.303 484.698 701.6C484.698 700.897 484.936 700.297 485.412 699.798C485.911 699.299 486.511 699.05 487.214 699.05C487.894 699.05 488.472 699.299 488.948 699.798C489.447 700.297 489.696 700.897 489.696 701.6C489.696 702.303 489.447 702.892 488.948 703.368C488.472 703.844 487.894 704.082 487.214 704.082ZM512.737 720.64L514.403 716.322C515.242 716.685 516.046 716.957 516.817 717.138C517.588 717.319 518.358 717.41 519.129 717.41C519.922 717.41 520.58 717.342 521.101 717.206C521.645 717.047 522.053 716.821 522.325 716.526C522.597 716.231 522.733 715.88 522.733 715.472C522.733 715.087 522.608 714.554 522.359 713.874C522.132 713.194 521.713 712.31 521.101 711.222C520.489 710.111 519.594 708.74 518.415 707.108L522.461 704.422C523.549 705.963 524.49 707.471 525.283 708.944C526.076 710.395 526.688 711.755 527.119 713.024C527.572 714.271 527.799 715.37 527.799 716.322C527.799 717.501 527.482 718.532 526.847 719.416C526.235 720.277 525.317 720.957 524.093 721.456C522.892 721.955 521.407 722.204 519.639 722.204C518.982 722.204 518.245 722.147 517.429 722.034C516.613 721.921 515.786 721.751 514.947 721.524C514.131 721.297 513.394 721.003 512.737 720.64Z" fill="#B85C3D"/>
  </g>
</svg>
