<svg xmlns="http://www.w3.org/2000/svg" viewBox="0 0 900 430" fill="none">
  <defs>
    <linearGradient id="ridge" x1="110" y1="330" x2="760" y2="120" gradientUnits="userSpaceOnUse">
      <stop stop-color="#DCE7DF" stop-opacity=".1"/>
      <stop offset="1" stop-color="#C9953D" stop-opacity=".72"/>
    </linearGradient>
    <linearGradient id="voice" x1="170" y1="240" x2="760" y2="70" gradientUnits="userSpaceOnUse">
      <stop stop-color="#F8F3E9" stop-opacity=".2"/>
      <stop offset=".55" stop-color="#C9953D"/>
      <stop offset="1" stop-color="#DCE7DF" stop-opacity=".55"/>
    </linearGradient>
    <pattern id="weave" width="48" height="48" patternUnits="userSpaceOnUse">
      <path d="M24 2 46 24 24 46 2 24 24 2Z" stroke="#F8F3E9" stroke-opacity=".055"/>
      <circle cx="24" cy="24" r="2" fill="#C9953D" fill-opacity=".18"/>
    </pattern>
  </defs>
  <rect width="900" height="430" fill="url(#weave)"/>
  <path d="M-20 395 112 264l77 63 98-155 92 112 76-68 98 120 73-72 81 67 92-143 121 207H-20Z" fill="#102F27" fill-opacity=".72"/>
  <path d="m-20 393 132-129 77 63 98-155 92 112 76-68 98 120 73-72 81 67 92-143 121 205" stroke="url(#ridge)" stroke-width="3" stroke-linecap="round" stroke-linejoin="round"/>
  <path d="M116 267c76-91 123 30 195-38 60-57 69-122 129-102 52 17 54 94 111 71 54-21 42-104 97-111 46-6 60 50 112 10" stroke="url(#voice)" stroke-width="4" stroke-linecap="round"/>
  <path d="M116 267c76-91 123 30 195-38 60-57 69-122 129-102 52 17 54 94 111 71 54-21 42-104 97-111 46-6 60 50 112 10" stroke="#C9953D" stroke-opacity=".22" stroke-width="14" stroke-linecap="round"/>
  <g fill="#C9953D">
    <circle cx="116" cy="267" r="6"/><circle cx="311" cy="229" r="5"/><circle cx="440" cy="127" r="6"/><circle cx="551" cy="198" r="5"/><circle cx="648" cy="87" r="6"/><circle cx="760" cy="97" r="5"/>
  </g>
  <g stroke="#F8F3E9" stroke-opacity=".42">
    <path d="m688 39 8 16 16 8-16 8-8 16-8-16-16-8 16-8 8-16Z"/>
    <path d="m228 105 5 10 10 5-10 5-5 10-5-10-10-5 10-5 5-10Z"/>
    <path d="m807 172 5 10 10 5-10 5-5 10-5-10-10-5 10-5 5-10Z"/>
  </g>
</svg>
