<svg xmlns="http://www.w3.org/2000/svg" viewBox="0 0 430 128" role="img" aria-labelledby="primary-title primary-desc">
  <title id="primary-title">KP AWAZ</title>
  <desc id="primary-desc">The KP AWAZ cultural gateway, mountain voice symbol, and wordmark.</desc>
  <defs>
    <path id="letter-k" d="M1736 0H1174Q1047 195 945 326Q843 457 684 655H632V209Q632 173 645 148Q658 123 697 106Q715 98 750.5 90Q786 82 821 78V0H67V78Q94 80 143.5 84Q193 88 213 96Q249 110 263 135Q277 160 277 198V1204Q277 1239 265 1263Q253 1287 213 1306Q182 1320 138 1329Q94 1338 67 1341V1419H846V1341Q815 1338 771.5 1332.5Q728 1327 697 1317Q658 1304 645 1276Q632 1248 632 1214V736H674Q752 807 856 907Q960 1007 1017 1071Q1097 1160 1134.5 1212Q1172 1264 1172 1302Q1172 1319 1136 1328Q1100 1337 1026 1341V1419H1643V1341Q1531 1329 1455 1300.5Q1379 1272 1304 1205Q1197 1109 1127.5 1038.5Q1058 968 949 858Q1045 741 1180 571.5Q1315 402 1449 241Q1483 200 1527 162.5Q1571 125 1624 102Q1649 91 1681 85Q1713 79 1736 78Z"/>
    <path id="letter-p" d="M1399 1064Q1399 944 1349.5 857.5Q1300 771 1213 717Q1123 661 1007.5 636Q892 611 748 611H632V212Q632 176 645.5 149.5Q659 123 697 107Q717 99 762 90Q807 81 838 78V0H69V78Q98 81 146 86.5Q194 92 213 100Q252 116 264.5 139Q277 162 277 203V1204Q277 1239 265 1264.5Q253 1290 213 1307Q185 1319 138.5 1328.5Q92 1338 69 1341V1419H852Q1127 1419 1263 1331.5Q1399 1244 1399 1064ZM1009 1013Q1009 1173 944.5 1250.5Q880 1328 715 1328H632V705H674Q838 705 923.5 780.5Q1009 856 1009 1013Z"/>
    <path id="letter-a" d="M1609 0H836V78Q890 82 963 97.5Q1036 113 1036 136Q1036 144 1034.5 154Q1033 164 1026 181L905 475H415Q398 434 377.5 379Q357 324 342 281Q323 225 319.5 200Q316 175 316 165Q316 133 364.5 110.5Q413 88 526 78V0H-56V78Q-23 80 18.5 88.5Q60 97 84 112Q125 136 153.5 171Q182 206 201 254Q317 535 433.5 817Q550 1099 691 1439H891Q1087 957 1198 677Q1309 397 1387 213Q1400 183 1420 158.5Q1440 134 1477 112Q1505 96 1542 88Q1579 80 1609 78ZM864 574 658 1088 455 574Z"/>
    <path id="letter-w" d="M2345 1339Q2314 1336 2283 1325.5Q2252 1315 2222 1299Q2176 1273 2156.5 1242Q2137 1211 2121 1167Q2066 1015 1951.5 680Q1837 345 1713-16H1512L1137 1039 799-16H598Q431 470 342 732.5Q253 995 192 1173Q173 1227 149 1251.5Q125 1276 87 1301Q60 1319 29.5 1327.5Q-1 1336-41 1341V1419H716V1343Q649 1335 616 1327.5Q583 1320 564 1312Q546 1304 542 1295Q538 1286 538 1279Q538 1265 541.5 1252Q545 1239 549 1222Q573 1144 646 926Q719 708 826 385L1149 1419H1361L1736 353Q1819 610 1868.5 773Q1918 936 1952 1052Q1972 1123 1984 1171Q1996 1219 1996 1254Q1996 1275 1976.5 1290Q1957 1305 1924 1316Q1896 1325 1851.5 1330.5Q1807 1336 1774 1339V1419H2345Z"/>
    <path id="letter-z" d="M1397 479 1349 0H17V61L934 1327H623Q528 1327 486 1321.5Q444 1316 407 1299Q364 1283 312 1214.5Q260 1146 173 986H92L136 1419H1370V1358L453 92H810Q978 92 1038.5 105.5Q1099 119 1127 154Q1184 223 1232.5 305.5Q1281 388 1322 479Z"/>
  </defs>
  <g aria-hidden="true">
    <path fill="#153f32" d="M14 114V58C14 30.4 36.4 8 64 8s50 22.4 50 50v56H14Z"/>
    <path fill="#f7f1e6" d="M29 108V59c0-20.4 15.7-36 35-36s35 15.6 35 36v49H29Z"/>
    <path fill="#b65d3a" d="m29 84 20-25 13 15 16-24 21 31v27H29Z"/>
    <path fill="#c89943" d="m64 30 6 6-6 6-6-6 6-6Z"/>
    <path fill="#153f32" d="m64 33 3 3-3 3-3-3 3-3Z"/>
    <path fill="none" stroke="#f7f1e6" stroke-linecap="round" stroke-linejoin="round" stroke-width="4.5" d="M32 86h11l5-8 7 16 8-29 8 22 6-11 8 10h11"/>
  </g>
  <g fill="#c89943" transform="translate(149 51) scale(.0155 -.0155)" aria-hidden="true">
    <use href="#letter-k"/>
    <use href="#letter-p" x="1673"/>
  </g>
  <g fill="#153f32" transform="translate(145 112) scale(.038 -.038)" aria-hidden="true">
    <use href="#letter-a"/>
    <use href="#letter-w" x="1553"/>
    <use href="#letter-a" x="3860"/>
    <use href="#letter-z" x="5413"/>
  </g>
</svg>
